Coordinates
version=1
nRows=16
nColumns=36
inDegrees=yes

Units are S.I. units (second, meters, Newtons, ...)
If the header above contains a line with 'inDegrees', this indicates whether rotational values are in degrees (yes) or radians (no).

endheader
time	pelvis_tilt	pelvis_list	pelvis_rotation	pelvis_tx	pelvis_ty	pelvis_tz	hip_flexion_r	hip_adduction_r	hip_rotation_r	knee_angle_r	knee_angle_r_beta	ankle_angle_r	subtalar_angle_r	mtp_angle_r	hip_flexion_l	hip_adduction_l	hip_rotation_l	knee_angle_l	knee_angle_l_beta	ankle_angle_l	subtalar_angle_l	mtp_angle_l	lumbar_extension	lumbar_bending	lumbar_rotation	arm_flex_r	arm_add_r	arm_rot_r	elbow_flex_r	pro_sup_r	arm_flex_l	arm_add_l	arm_rot_l	elbow_flex_l	pro_sup_l
      0.00000000	      6.97813962	     -2.89658102	     -4.97217212	      0.51730291	      1.04001955	      0.69005739	     20.67927503	      2.61115404	      1.48000171	     48.07677849	      0.83909808	      1.42073379	    -16.11959445	     -7.04490613	     -7.67370726	     -0.41511426	      1.28448528	      8.74099432	      0.15255913	     12.06863925	     -8.37832810	     -7.04490613	    -23.96041606	      1.32580058	      3.79094637	      2.47813076	    -17.06197018	      2.05615350	     33.44190733	     94.84638619	     15.38335307	    -14.64008247	      6.74218722	     30.08169131	     93.85987665
      0.01666670	      6.91837087	     -2.45102637	     -4.74537587	      0.51426564	      1.03736989	      0.68884574	     21.55506022	      1.99382532	      1.28558331	     43.45672782	      0.75846298	      2.20028713	    -13.45596170	     -7.17624570	     -7.81854626	      0.26777971	      3.93109081	      9.88755034	      0.17257031	     12.47356418	    -10.10306412	     -7.17624570	    -24.34832037	      0.66457105	      5.38040173	      0.80717498	    -17.29895202	     -0.04690975	     34.06291909	    100.95380567	     17.83558847	    -14.44651305	      8.93291681	     30.73139968	    100.08167342
      0.03333330	      7.01953100	     -1.73730626	     -4.57346651	      0.51104437	      1.03640666	      0.68939786	     21.80516395	      1.49939982	      2.22239596	     38.67178603	      0.67494999	      2.65558358	    -12.48610075	     -7.22003713	     -8.76718947	      0.98255438	      5.76350843	      9.44151749	      0.16478557	     12.94298383	     -9.86437076	     -7.22003713	    -24.81162512	     -0.32129947	      6.57859783	     -1.15172567	    -17.38107950	     -1.16483623	     35.27233020	    101.85048973	     20.85722250	    -14.61903031	     12.46686293	     30.58577447	    101.11892473
      0.05000000	      6.91269981	     -1.30915722	     -4.15116755	      0.50814398	      1.03529720	      0.69011358	     22.19968592	      1.09030015	      2.65392428	     34.12002980	      0.59550686	      3.03644111	    -11.47557621	     -7.22631665	     -9.43244145	      1.19939310	      6.36411853	      9.01083020	      0.15726866	     13.77107557	     -8.68514538	     -7.22631665	    -24.79960749	     -0.81969467	      6.79399876	     -2.06551857	    -17.47713824	     -1.18141225	     35.18298507	    101.73941019	     22.94542594	    -14.90127741	     14.70447007	     30.87764362	    100.92454803
      0.06666670	      6.70649944	     -0.86337623	     -3.95068292	      0.50583309	      1.03397672	      0.69193856	     22.60006302	      0.72434861	      3.22936690	     29.66094808	      0.51768120	      2.96529940	    -10.10897376	     -7.22046604	    -10.03548759	      1.47624470	      6.36959675	      8.64594343	      0.15090018	     14.67426907	     -7.48637110	     -7.22046604	    -24.84890243	     -1.38819519	      7.15736752	     -3.15767111	    -17.43902700	     -2.11846863	     35.76821886	    101.69117054	     24.75822196	    -14.95483399	     15.92119421	     31.42933481	    100.74471753
      0.08333330	      6.17187792	     -0.41967671	     -3.61717174	      0.50501348	      1.03252183	      0.69330947	     23.27181943	      0.22051091	      3.43372409	     25.48061220	      0.44472058	      2.89073274	     -8.73391372	     -7.21305120	    -10.33412475	      1.72145298	      6.44001736	      8.26424526	      0.14423829	     15.50766875	     -6.15289833	     -7.21305120	    -24.49021471	     -1.81958662	      7.18487771	     -3.90171594	    -17.24401894	     -2.99826694	     35.95076583	    101.40332538	     26.13383287	    -14.93433742	     16.81926290	     31.80855381	    100.17357655
      0.10000000	      5.41398947	      0.01145042	     -3.24478309	      0.50583445	      1.03140360	      0.69373111	     24.06961166	     -0.38806401	      3.22003491	     21.61908568	      0.37732423	      2.99723891	     -6.89252549	     -7.21665768	    -10.39511778	      1.97444928	      6.45626883	      7.95669043	      0.13887045	     16.27240879	     -4.95670293	     -7.21665768	    -23.76392526	     -2.09003760	      6.87642923	     -4.27375742	    -16.96604628	     -3.37576209	     35.75344062	    100.74482702	     26.72853271	    -15.07972618	     17.07430872	     32.24920276	     98.98625103
      0.11666670	      4.68294978	      0.32723743	     -2.93212917	      0.50727375	      1.02943208	      0.69348628	     24.80425306	     -0.94243361	      2.72408002	     18.35459637	      0.32034814	      3.31634913	     -4.94361579	     -7.22502002	    -10.41586269	      2.13482384	      6.24457961	      7.89712067	      0.13783076	     17.10100209	     -3.78968799	     -7.22502002	    -23.04257566	     -2.16542278	      6.63790138	     -4.58026559	    -16.71235795	     -3.77133176	     35.67770223	     99.78785511	     26.87228393	    -15.12857264	     16.98794214	     32.82349438	     97.48305794
      0.13333330	      3.92974208	      0.48422937	     -2.65819299	      0.50782285	      1.02705862	      0.69341038	     25.57603969	     -1.35253618	      1.97218038	     15.83287309	      0.27633577	      3.77429803	     -3.01796432	     -7.22519965	    -10.41845565	      2.06775818	      5.74979333	      8.08319106	      0.14107830	     17.42535973	     -3.31170882	     -7.22519965	    -22.12572872	     -2.08586931	      6.55948881	     -4.53592758	    -16.47631273	     -4.02336463	     34.66171517	     99.12074072	     26.89100815	    -14.96338609	     16.46595750	     33.20810383	     96.44839085
      0.15000000	      3.68492140	      0.37950026	     -2.44428862	      0.50648998	      1.02605253	      0.69447071	     25.70359210	     -1.38646615	      1.38312689	     13.96197782	      0.24368248	      3.81982843	     -2.39856329	     -7.24945313	    -11.12176588	      1.56099078	      4.39182607	      8.36294906	      0.14596100	     17.16829335	     -3.01391347	     -7.24945313	    -22.05432541	     -1.67944242	      6.82825111	     -5.32200818	    -16.29600113	     -5.15163847	     35.84499070	     98.31067401	     27.15773405	    -14.71162564	     16.58044138	     33.49988546	     95.18809799
      0.16666670	      3.36408283	      0.04550010	     -2.18182945	      0.50481365	      1.02554401	      0.69622351	     25.73648102	     -1.10892440	      0.61096394	     12.88097771	      0.22481547	      3.66537104	     -2.18988255	     -7.24764607	    -11.75224499	      0.66036008	      2.82655841	      8.87674983	      0.15492851	     15.93710445	     -3.61109997	     -7.24764607	    -21.74105891	     -1.11372033	      6.93098209	     -5.29446688	    -16.19469281	     -5.43770098	     35.36364622	     97.61002278	     27.34924241	    -14.43048852	     16.26920326	     33.55433172	     94.35971108
      0.18333330	      3.35104350	     -0.57218010	     -1.88695905	      0.50504314	      1.02513588	      0.69774010	     25.21892230	     -0.47654135	     -0.19955617	     12.66678944	      0.22107718	      2.82495913	     -2.57486939	     -7.25612933	    -12.61777252	     -0.58131217	      1.16016262	      9.64569209	      0.16834909	     14.38167365	     -4.59931005	     -7.25612933	    -21.92042278	     -0.25130405	      7.35895550	     -5.88047646	    -16.27891234	     -6.14886032	     36.21546167	     96.49963349	     27.69064599	    -13.96523454	     16.28836300	     33.58695187	     93.51379383
      0.20000000	      3.35581138	     -1.21245189	     -1.61348615	      0.50777808	      1.02433855	      0.69866771	     24.60365077	      0.22938580	     -0.87381623	     13.28619769	      0.23188789	      1.23040342	     -3.11514984	     -7.30897665	    -13.21202904	     -1.77747232	     -0.24232276	     10.89284973	      0.19011609	     12.87761073	     -5.82463010	     -7.30897665	    -22.07060799	      0.54502699	      8.60264921	     -7.35553142	    -16.10680136	     -8.39567643	     37.78317690	     95.43482864	     28.67959919	    -12.95365452	     17.50751159	     32.61154243	     93.42279197
      0.21666670	      3.24837253	     -1.77444088	     -1.38840899	      0.51227246	      1.02421356	      0.69965385	     24.10330314	      0.89152057	     -1.23138928	     14.34729112	      0.25040747	     -0.83274200	     -3.72158099	     -7.33558709	    -13.29604390	     -2.80418280	     -1.48378981	     12.82656995	      0.22386588	     11.67695211	     -6.83652962	     -7.33558709	    -21.87864427	      1.37823585	      8.66606569	     -7.43004247	    -16.24863217	     -8.14524972	     37.82304882	     93.73765122	     28.24439030	    -12.63030381	     17.16260625	     32.58349292	     91.74342741
      0.23333330	      3.12363698	     -2.25257156	     -1.30104002	      0.51809909	      1.02643829	      0.70165213	     23.63996848	      1.52035094	     -1.22302565	     15.49282311	      0.27040077	     -2.82194588	     -4.40808441	     -7.35096841	    -13.08166398	     -3.66348381	     -2.62587092	     15.23762822	      0.26594678	     10.35682840	     -7.77909154	     -7.35096841	    -21.56177365	      2.09881704	      8.81560217	     -7.34504492	    -16.20892203	     -8.49671939	     37.43333676	     94.02835089	     27.63226949	    -12.24733412	     16.55281153	     32.14226546	     92.26332741
      0.25000000	      3.09308338	     -2.77084065	     -1.32034794	      0.52509298	      1.03126659	      0.70467591	     23.01911430	      2.20913704	     -1.12647403	     16.55871947	      0.28900417	     -4.07515881	     -4.88079289	     -7.36614236	    -12.84804086	     -4.53391370	     -3.72684460	     17.84756951	      0.31149885	      8.68547830	     -8.63005027	     -7.36614236	    -21.20223125	      2.90716627	      8.57321014	     -6.66399428	    -16.34089050	     -7.56175716	     36.33872934	     91.93675004	     26.20826331	    -12.09768986	     15.44523241	     32.16569120	     89.91724783
